<svg width="40" height="40" viewBox="0 0 40 40" fill="none" xmlns="http://www.w3.org/2000/svg">
<circle cx="19.9999" cy="19.9999" r="15.0062" stroke="#4A4B55" stroke-width="1.5" stroke-linecap="round" stroke-linejoin="round"/>
<path d="M19.9998 13.3306C22.0459 13.3306 23.7047 14.9893 23.7047 17.0354C23.7047 19.0816 22.0459 20.7403 19.9998 20.7403C17.9537 20.7403 16.2949 19.0816 16.2949 17.0354C16.2949 14.9893 17.9537 13.3306 19.9998 13.3306" stroke="#4A4B55" stroke-width="1.5" stroke-linecap="round" stroke-linejoin="round"/>
<path fill-rule="evenodd" clip-rule="evenodd" d="M26.6695 27.4579C22.986 31.1412 17.0141 31.1412 13.3306 27.4579C13.5255 26.9706 13.8262 26.5327 14.2109 26.1757C14.8614 25.5718 15.716 25.2359 16.6036 25.2354H23.3981C24.2852 25.2358 25.1393 25.5718 25.7891 26.1757C26.1747 26.5319 26.4756 26.9701 26.6695 27.4579Z" stroke="#4A4B55" stroke-width="1.5" stroke-linecap="round" stroke-linejoin="round"/>
</svg>
